<?xml version="1.0" encoding="utf-8"?>
<!-- Generator: Adobe Illustrator 16.0.0, SVG Export Plug-In . SVG Version: 6.00 Build 0)  -->
<!DOCTYPE svg PUBLIC "-//W3C//DTD SVG 1.0//EN" "http://www.w3.org/TR/2001/REC-SVG-20010904/DTD/svg10.dtd">
<svg version="1.0" id="Layer_1" xmlns="http://www.w3.org/2000/svg" xmlns:xlink="http://www.w3.org/1999/xlink" x="0px" y="0px"
	 width="76.302px" height="73.724px" viewBox="0 0 76.302 73.724" enable-background="new 0 0 76.302 73.724" xml:space="preserve">
<path id="path2864" fill="none" stroke="#FFFFFF" d="M63.24,32.504l4.381-0.761l1.969,0.14l6.713,3.109v3.74l-6.713,3.108
	l-1.969,0.141L63.24,41.22l-2.229,6.862l3.991,1.961l1.512,1.27l3.602,6.461l-2.197,3.025l-7.258-1.43l-1.676-1.045l-3.097-3.189
	l-5.839,4.24l2.078,3.933l0.476,1.916l-0.883,7.344l-3.558,1.156l-5.031-5.423l-0.741-1.829l-0.63-4.402h-7.216l-0.63,4.402
	l-0.741,1.829l-5.032,5.423l-3.557-1.156L23.7,65.224l0.476-1.916l2.077-3.933l-5.838-4.24l-3.097,3.189l-1.675,1.045l-7.258,1.43
	l-2.198-3.025l3.602-6.461l1.511-1.27l3.992-1.961l-2.23-6.862l-4.381,0.761L6.712,41.84L0,38.732v-3.74l6.712-3.109l1.969-0.14
	l4.381,0.761l2.23-6.863l-3.992-1.96l-1.511-1.27L6.187,15.95l2.198-3.026l7.258,1.43l1.675,1.045l3.097,3.19l5.838-4.241
	l-2.077-3.932L23.7,8.5l0.883-7.344L28.14,0l5.032,5.423l0.741,1.829l0.63,4.402h7.216l0.63-4.402l0.741-1.829L48.162,0l3.558,1.156
	L52.602,8.5l-0.476,1.916l-2.078,3.932l5.839,4.241l3.097-3.19l1.676-1.045l7.258-1.43l2.197,3.026l-3.602,6.461l-1.512,1.27
	l-3.991,1.96L63.24,32.504z"/>
</svg>
