<?xml version="1.0" encoding="utf-8"?>
<!-- Generator: Adobe Illustrator 16.0.0, SVG Export Plug-In . SVG Version: 6.00 Build 0)  -->
<!DOCTYPE svg PUBLIC "-//W3C//DTD SVG 1.0//EN" "http://www.w3.org/TR/2001/REC-SVG-20010904/DTD/svg10.dtd">
<svg version="1.0" id="Layer_1" xmlns="http://www.w3.org/2000/svg" xmlns:xlink="http://www.w3.org/1999/xlink" x="0px" y="0px"
	 width="127.25px" height="126.07px" viewBox="0 0 127.25 126.07" enable-background="new 0 0 127.25 126.07" xml:space="preserve">
<path id="path2992" fill="none" stroke="#FFFFFF" d="M114.29,57.841l2.896-0.297l3.518,0.497l6.547,2.825v4.338l-6.547,2.825
	l-3.518,0.497l-2.896-0.297l-1.279,7.253l2.824,0.711l3.135,1.671l5.186,4.894l-1.482,4.078l-7.119,0.414l-3.477-0.736l-2.619-1.27
	l-3.682,6.378l2.408,1.634l2.375,2.644l3.201,6.372l-2.789,3.322l-6.832-2.045l-3.014-1.879l-2.027-2.09l-5.641,4.734l1.703,2.359
	l1.328,3.295l0.828,7.082l-3.758,2.17l-5.719-4.258l-2.191-2.797l-1.189-2.656l-6.92,2.518l0.795,2.8l0.121,3.552l-1.645,6.938
	l-4.273,0.753l-3.918-5.957l-1.102-3.378l-0.211-2.903h-7.364l-0.211,2.903l-1.102,3.378l-3.918,5.957l-4.273-0.753l-1.643-6.938
	l0.121-3.552l0.795-2.8l-6.92-2.518l-1.191,2.656l-2.189,2.797l-5.721,4.258l-3.758-2.17l0.828-7.082l1.328-3.295l1.705-2.359
	l-5.643-4.734l-2.025,2.09l-3.016,1.879l-6.832,2.045l-2.789-3.322l3.201-6.372l2.375-2.644l2.408-1.634l-3.682-6.378l-2.619,1.27
	l-3.477,0.736L4.58,86.835l-1.484-4.078l5.186-4.894l3.137-1.671l2.822-0.711l-1.279-7.253l-2.896,0.297l-3.518-0.497L0,65.204
	v-4.338l6.547-2.825l3.518-0.497l2.896,0.297l1.279-7.253l-2.822-0.711l-3.137-1.671l-5.186-4.893l1.484-4.078l7.117-0.414
	l3.477,0.735l2.619,1.27l3.682-6.378l-2.408-1.634l-2.375-2.643l-3.199-6.372l2.787-3.323l6.832,2.045l3.016,1.88l2.025,2.089
	l5.643-4.734l-1.705-2.359l-1.328-3.296l-0.828-7.082l3.758-2.17l5.721,4.258l2.189,2.798l1.191,2.656l6.92-2.518l-0.795-2.8
	l-0.121-3.551l1.643-6.939L54.713,0l3.918,5.957l1.102,3.378l0.211,2.904h7.364l0.211-2.904l1.102-3.378L72.538,0l4.273,0.753
	l1.645,6.939l-0.121,3.551l-0.795,2.8l6.92,2.518l1.189-2.656l2.191-2.798l5.719-4.258l3.758,2.17l-0.828,7.082l-1.328,3.296
	l-1.703,2.359l5.641,4.734l2.027-2.089l3.014-1.88l6.832-2.045l2.789,3.323l-3.201,6.372l-2.375,2.643l-2.408,1.634l3.682,6.378
	l2.619-1.27l3.477-0.735l7.119,0.414l1.482,4.078l-5.186,4.893l-3.135,1.671l-2.824,0.711L114.29,57.841z"/>
</svg>
