<?xml version="1.0" encoding="utf-8"?>
<!-- Generator: Adobe Illustrator 16.0.0, SVG Export Plug-In . SVG Version: 6.00 Build 0)  -->
<!DOCTYPE svg PUBLIC "-//W3C//DTD SVG 1.0//EN" "http://www.w3.org/TR/2001/REC-SVG-20010904/DTD/svg10.dtd">
<svg version="1.0" id="Layer_1" xmlns="http://www.w3.org/2000/svg" xmlns:xlink="http://www.w3.org/1999/xlink" x="0px" y="0px"
	 width="140px" height="140px" viewBox="0 0 140 140" enable-background="new 0 0 140 140" xml:space="preserve">
<path id="path3034" fill="none" stroke="#FFFFFF" d="M127.233,64.909l2.516-0.236l3.904,0.588l6.527,2.782v4.425l-6.527,2.783
	l-3.904,0.586l-2.516-0.235l-1.141,7.198l2.467,0.553l3.531,1.766l5.348,4.664l-1.367,4.205l-7.068,0.631l-3.893-0.648l-2.32-1.001
	l-3.309,6.493l2.174,1.287l2.812,2.77l3.646,6.089l-2.602,3.578l-6.916-1.585l-3.504-1.82l-1.896-1.669l-5.152,5.153l1.668,1.896
	l1.82,3.504l1.586,6.916l-3.578,2.601l-6.09-3.646l-2.768-2.813l-1.289-2.175l-6.492,3.31l1,2.32l0.648,3.894l-0.631,7.068
	l-4.205,1.367l-4.664-5.348l-1.766-3.533l-0.553-2.465l-7.197,1.141l0.236,2.516l-0.588,3.904l-2.783,6.527h-4.424l-2.783-6.527
	l-0.586-3.904l0.234-2.516l-7.197-1.141l-0.553,2.465l-1.766,3.533l-4.664,5.348l-4.205-1.367l-0.631-7.068l0.648-3.894l1.002-2.32
	l-6.494-3.31l-1.287,2.175l-2.77,2.813l-6.09,3.646l-3.578-2.601l1.586-6.916l1.82-3.504l1.668-1.896l-5.152-5.153l-1.896,1.669
	l-3.504,1.82l-6.916,1.585l-2.602-3.578l3.646-6.089l2.812-2.77l2.176-1.287l-3.311-6.493l-2.318,1.001l-3.895,0.648l-7.068-0.631
	l-1.367-4.205l5.348-4.664l3.533-1.766l2.465-0.553l-1.141-7.198l-2.516,0.235l-3.904-0.586l-6.527-2.783v-4.425l6.527-2.782
	l3.904-0.588l2.516,0.236l1.141-7.198l-2.465-0.553l-3.533-1.765l-5.348-4.664l1.367-4.206l7.068-0.63l3.895,0.647l2.318,1.001
	l3.311-6.493l-2.176-1.287l-2.812-2.77l-3.646-6.089l2.602-3.578l6.916,1.585l3.504,1.82l1.896,1.669l5.152-5.153l-1.668-1.896
	l-1.82-3.504l-1.586-6.917l3.578-2.601l6.09,3.646l2.77,2.813l1.287,2.174l6.494-3.309l-1.002-2.32l-0.648-3.894l0.631-7.068
	l4.205-1.367l4.664,5.349l1.766,3.531l0.553,2.466l7.197-1.141l-0.234-2.516l0.586-3.904l2.783-6.526h4.424l2.783,6.526l0.588,3.904
	l-0.236,2.516l7.197,1.141l0.553-2.466l1.766-3.531l4.664-5.349l4.205,1.367l0.631,7.068l-0.648,3.894l-1,2.32l6.492,3.309
	l1.289-2.174l2.768-2.813l6.09-3.646l3.578,2.601l-1.586,6.917l-1.82,3.504l-1.668,1.896l5.152,5.153l1.896-1.669l3.504-1.82
	l6.916-1.585l2.602,3.578l-3.646,6.089l-2.812,2.77l-2.174,1.287l3.309,6.493l2.32-1.001l3.893-0.647l7.068,0.63l1.367,4.206
	l-5.348,4.664l-3.531,1.765l-2.467,0.553L127.233,64.909z"/>
</svg>
