<?xml version="1.0" encoding="utf-8"?>
<!-- Generator: Adobe Illustrator 16.0.0, SVG Export Plug-In . SVG Version: 6.00 Build 0)  -->
<!DOCTYPE svg PUBLIC "-//W3C//DTD SVG 1.0//EN" "http://www.w3.org/TR/2001/REC-SVG-20010904/DTD/svg10.dtd">
<svg version="1.0" id="Layer_1" xmlns="http://www.w3.org/2000/svg" xmlns:xlink="http://www.w3.org/1999/xlink" x="0px" y="0px"
	 width="267.336px" height="267.336px" viewBox="0 0 267.336 267.336" enable-background="new 0 0 267.336 267.336"
	 xml:space="preserve">
<path id="path3331" fill="none" stroke="#FFFFFF" d="M254.455,127.248l6.439,1.42l6.441,2.578v4.841l-6.441,2.578l-6.439,1.42
	l-0.482,6.137l6.137,2.41l5.961,3.555l-0.758,4.783l-6.767,1.537l-6.581,0.396l-1.438,5.984l5.686,3.34l5.33,4.441l-1.496,4.605
	l-6.924,0.461l-6.562-0.637l-2.355,5.686l5.092,4.188l4.57,5.223l-2.199,4.314l-6.909-0.629l-6.382-1.656l-3.217,5.248l4.375,4.932
	l3.696,5.873l-2.846,3.918l-6.728-1.703l-6.043-2.635l-3.998,4.68l3.549,5.559l2.732,6.379l-3.424,3.424l-6.378-2.734l-5.558-3.547
	l-4.681,3.996l2.636,6.045l1.701,6.727l-3.918,2.846l-5.871-3.697l-4.934-4.373l-5.248,3.215l1.657,6.383l0.628,6.91l-4.314,2.197
	l-5.222-4.57l-4.188-5.09l-5.686,2.355l0.639,6.561l-0.461,6.924l-4.605,1.496l-4.442-5.33l-3.341-5.684l-5.984,1.436l-0.396,6.582
	l-1.538,6.768l-4.783,0.756l-3.554-5.959l-2.41-6.137l-6.136,0.482l-1.42,6.439l-2.578,6.441h-4.842l-2.578-6.441l-1.42-6.439
	l-6.136-0.482l-2.41,6.137l-3.554,5.959l-4.783-0.756l-1.538-6.768l-0.396-6.582l-5.984-1.436l-3.341,5.684l-4.442,5.33
	l-4.605-1.496l-0.461-6.924l0.638-6.561l-5.686-2.355l-4.188,5.09l-5.222,4.57l-4.314-2.197l0.628-6.91l1.657-6.383l-5.248-3.215
	l-4.933,4.373l-5.872,3.697l-3.918-2.846l1.702-6.727l2.635-6.045l-4.68-3.996l-5.558,3.547l-6.378,2.734l-3.424-3.424l2.733-6.379
	l3.548-5.559l-3.997-4.68l-6.044,2.635l-6.727,1.703l-2.846-3.918l3.697-5.873l4.374-4.932l-3.216-5.248l-6.382,1.656l-6.91,0.627
	l-2.198-4.312l4.57-5.223l5.091-4.188l-2.355-5.686l-6.562,0.637l-6.924-0.461l-1.496-4.605l5.33-4.441l5.685-3.34l-1.437-5.984
	l-6.581-0.396l-6.767-1.537l-0.757-4.783l5.96-3.555l6.137-2.41l-0.483-6.137l-6.439-1.42L0,136.087v-4.841l6.442-2.578l6.439-1.42
	l0.483-6.135l-6.137-2.41l-5.96-3.555l0.757-4.783l6.767-1.537l6.581-0.396l1.437-5.984l-5.685-3.34l-5.33-4.443l1.496-4.604
	l6.924-0.461l6.562,0.637l2.355-5.686l-5.091-4.188l-4.57-5.223l2.198-4.314l6.91,0.629l6.382,1.656l3.216-5.248l-4.374-4.932
	l-3.697-5.873l2.846-3.918l6.727,1.703l6.044,2.635l3.997-4.682l-3.548-5.557l-2.733-6.379l3.424-3.424l6.378,2.732l5.558,3.549
	l4.68-3.996l-2.635-6.045l-1.702-6.727l3.918-2.846l5.872,3.697l4.933,4.373l5.248-3.217l-1.657-6.381l-0.628-6.91l4.314-2.197
	l5.222,4.568l4.188,5.092l5.686-2.355l-0.638-6.562l0.461-6.924l4.605-1.496l4.442,5.33l3.341,5.686l5.984-1.438l0.396-6.58
	l1.538-6.768l4.783-0.756l3.554,5.959l2.41,6.137l6.136-0.482l1.42-6.439L131.247,0h4.842l2.578,6.441l1.42,6.439l6.136,0.482
	l2.41-6.137l3.554-5.959l4.783,0.756l1.538,6.768l0.396,6.58l5.984,1.438l3.341-5.686l4.442-5.33l4.605,1.496l0.461,6.924
	l-0.639,6.562l5.686,2.355l4.188-5.092l5.222-4.568l4.314,2.197l-0.628,6.91l-1.657,6.381l5.248,3.217l4.934-4.373l5.871-3.697
	l3.918,2.846l-1.701,6.727l-2.636,6.045l4.681,3.996l5.558-3.549l6.378-2.732l3.424,3.424l-2.732,6.379l-3.549,5.557l3.998,4.682
	l6.043-2.635l6.728-1.703l2.846,3.918l-3.696,5.873l-4.375,4.932l3.217,5.248l6.382-1.656l6.909-0.629l2.199,4.314l-4.57,5.223
	l-5.092,4.188l2.355,5.686l6.562-0.637l6.924,0.461l1.496,4.604l-5.33,4.443l-5.686,3.34l1.438,5.984l6.58,0.396l6.768,1.537
	l0.758,4.783l-5.961,3.555l-6.137,2.41L254.455,127.248z"/>
</svg>
