<?xml version="1.0" encoding="utf-8"?>
<!-- Generator: Adobe Illustrator 16.0.0, SVG Export Plug-In . SVG Version: 6.00 Build 0)  -->
<!DOCTYPE svg PUBLIC "-//W3C//DTD SVG 1.0//EN" "http://www.w3.org/TR/2001/REC-SVG-20010904/DTD/svg10.dtd">
<svg version="1.0" id="Layer_1" xmlns="http://www.w3.org/2000/svg" xmlns:xlink="http://www.w3.org/1999/xlink" x="0px" y="0px"
	 width="51.842px" height="51.84px" viewBox="0 0 51.842 51.84" enable-background="new 0 0 51.842 51.84" xml:space="preserve">
<path id="path2824" fill="none" stroke="#FFFFFF" d="M38.169,22.442l5.016-1.425l1.184-0.04l6.973,3.447v2.992l-6.973,3.447
	l-1.184-0.039l-5.016-1.426l-3.112,5.391l3.741,3.631l0.627,1.006l0.502,7.762l-2.592,1.496l-6.471-4.314l-0.558-1.045l-1.273-5.059
	H22.81l-1.274,5.059l-0.558,1.045l-6.472,4.314l-2.591-1.496l0.501-7.762l0.627-1.006l3.742-3.631l-3.111-5.391l-5.017,1.426
	l-1.185,0.039L0.5,27.416v-2.992l6.973-3.447l1.185,0.04l5.017,1.425l3.111-5.39l-3.742-3.632l-0.627-1.005l-0.501-7.762
	l2.591-1.496l6.472,4.315l0.558,1.045l1.274,5.057h6.224l1.273-5.057l0.558-1.045l6.471-4.315l2.592,1.496l-0.502,7.762
	l-0.627,1.005l-3.741,3.632L38.169,22.442z"/>
</svg>
