<?xml version="1.0" encoding="utf-8"?>
<!-- Generator: Adobe Illustrator 16.0.0, SVG Export Plug-In . SVG Version: 6.00 Build 0)  -->
<!DOCTYPE svg PUBLIC "-//W3C//DTD SVG 1.0//EN" "http://www.w3.org/TR/2001/REC-SVG-20010904/DTD/svg10.dtd">
<svg version="1.0" id="Layer_1" xmlns="http://www.w3.org/2000/svg" xmlns:xlink="http://www.w3.org/1999/xlink" x="0px" y="0px"
	 width="64.758px" height="63.568px" viewBox="0 0 64.758 63.568" enable-background="new 0 0 64.758 63.568" xml:space="preserve">
<path id="path2842" fill="none" stroke="#FFFFFF" d="M51.648,27.779l4.723-1.013l1.578,0.05l6.81,3.246v3.444l-6.81,3.246
	l-1.578,0.049l-4.723-1.012l-2.638,6.367l4.056,2.623l1.081,1.15l2.52,7.111l-2.436,2.436l-7.11-2.52l-1.151-1.082l-2.623-4.056
	l-6.367,2.638l1.013,4.724l-0.05,1.577l-3.246,6.81h-3.444l-3.246-6.81l-0.05-1.577l1.013-4.724l-6.368-2.638l-2.623,4.056
	l-1.151,1.082l-7.11,2.52l-2.436-2.436l2.52-7.111l1.081-1.15l4.056-2.623L14.3,35.79l-4.723,1.012l-1.578-0.049L1.19,33.506v-3.444
	l6.809-3.246l1.578-0.05l4.723,1.013l2.638-6.368l-4.056-2.623l-1.081-1.151l-2.52-7.11l2.436-2.436l7.11,2.52l1.151,1.081
	l2.623,4.056l6.368-2.638l-1.013-4.723l0.05-1.578L31.252,0h3.444l3.246,6.809l0.05,1.578l-1.013,4.723l6.367,2.638l2.623-4.056
	l1.151-1.081l7.11-2.52l2.436,2.436l-2.52,7.11l-1.081,1.151l-4.056,2.623L51.648,27.779z"/>
</svg>
