<?xml version="1.0" encoding="utf-8"?>
<!-- Generator: Adobe Illustrator 16.0.0, SVG Export Plug-In . SVG Version: 6.00 Build 0)  -->
<!DOCTYPE svg PUBLIC "-//W3C//DTD SVG 1.0//EN" "http://www.w3.org/TR/2001/REC-SVG-20010904/DTD/svg10.dtd">
<svg version="1.0" id="Layer_1" xmlns="http://www.w3.org/2000/svg" xmlns:xlink="http://www.w3.org/1999/xlink" x="0px" y="0px"
	 width="114.516px" height="114.514px" viewBox="0 0 114.516 114.514" enable-background="new 0 0 114.516 114.514"
	 xml:space="preserve">
<path id="path2954" fill="none" stroke="#FFFFFF" d="M101.538,52.229l3.273-0.372l3.131,0.408l6.574,2.873v4.238l-6.574,2.873
	l-3.131,0.408l-3.273-0.372l-1.445,7.271l3.166,0.909l2.736,1.576l4.973,5.17l-1.621,3.914l-7.172,0.14l-3.051-0.82l-2.881-1.598
	l-4.119,6.164l2.578,2.053l1.926,2.502l2.615,6.681l-2.996,2.996l-6.68-2.616L87.065,94.7l-2.053-2.578l-6.164,4.119l1.598,2.882
	l0.82,3.05l-0.141,7.171l-3.914,1.622l-5.17-4.972l-1.574-2.738l-0.91-3.166l-7.271,1.446l0.373,3.273l-0.408,3.131l-2.873,6.574
	h-4.239l-2.873-6.574l-0.408-3.131l0.373-3.273l-7.271-1.446l-0.908,3.166l-1.576,2.738l-5.17,4.972l-3.914-1.622l-0.141-7.171
	l0.82-3.05l1.598-2.882l-6.164-4.119L27.451,94.7l-2.502,1.926l-6.68,2.616l-2.996-2.996l2.615-6.681l1.926-2.502l2.578-2.053
	l-4.119-6.164l-2.881,1.598l-3.051,0.82l-7.172-0.14l-1.621-3.914l4.973-5.17l2.738-1.576l3.166-0.909l-1.447-7.271l-3.273,0.372
	l-3.131-0.408L0,59.376v-4.238l6.574-2.873l3.131-0.408l3.273,0.372l1.447-7.271l-3.166-0.909l-2.738-1.576l-4.973-5.17l1.621-3.914
	l7.172-0.14l3.051,0.821l2.881,1.597l4.119-6.164l-2.578-2.052l-1.926-2.503l-2.615-6.68l2.996-2.996l6.68,2.616l2.502,1.926
	l2.053,2.578l6.164-4.119l-1.598-2.882l-0.82-3.05l0.141-7.171l3.914-1.622l5.17,4.972l1.576,2.738l0.908,3.166l7.271-1.446
	l-0.373-3.273l0.408-3.132L55.139,0h4.239l2.873,6.573l0.408,3.132l-0.373,3.273l7.271,1.446l0.91-3.166l1.574-2.738l5.17-4.972
	l3.914,1.622l0.141,7.171l-0.82,3.05l-1.598,2.882l6.164,4.119l2.053-2.578l2.502-1.926l6.68-2.616l2.996,2.996l-2.615,6.68
	l-1.926,2.503l-2.578,2.052l4.119,6.164l2.881-1.597l3.051-0.821l7.172,0.14l1.621,3.914l-4.973,5.17l-2.736,1.576l-3.166,0.909
	L101.538,52.229z"/>
</svg>
