<?xml version="1.0" encoding="utf-8"?>
<!-- Generator: Adobe Illustrator 16.0.0, SVG Export Plug-In . SVG Version: 6.00 Build 0)  -->
<!DOCTYPE svg PUBLIC "-//W3C//DTD SVG 1.0//EN" "http://www.w3.org/TR/2001/REC-SVG-20010904/DTD/svg10.dtd">
<svg version="1.0" id="Layer_1" xmlns="http://www.w3.org/2000/svg" xmlns:xlink="http://www.w3.org/1999/xlink" x="0px" y="0px"
	 width="241.868px" height="241.868px" viewBox="0 0 241.868 241.868" enable-background="new 0 0 241.868 241.868"
	 xml:space="preserve">
<path id="path3267" fill="none" stroke="#FFFFFF" d="M12.892,114.639l-6.44,1.297L0,118.538v4.792l6.452,2.602l6.44,1.297
	l0.548,6.268l-6.117,2.395l-5.902,3.684l0.832,4.719l6.806,1.443l6.567,0.158l1.629,6.076l-5.609,3.422l-5.172,4.652l1.639,4.502
	l6.952,0.239l6.496-0.983l2.658,5.701l-4.929,4.342l-4.286,5.48l2.396,4.15l6.888-0.973l6.226-2.097l3.609,5.153l-4.101,5.133
	l-3.269,6.141l3.08,3.67l6.615-2.152l5.767-3.147l4.449,4.449l-3.147,5.767l-2.153,6.615l3.67,3.08l6.141-3.27l5.133-4.101
	l5.153,3.609l-2.097,6.226l-0.972,6.888l4.15,2.396l5.48-4.286l4.343-4.929l5.701,2.658l-0.984,6.495l0.239,6.952l4.503,1.64
	l4.652-5.172l3.421-5.609l6.076,1.629l0.159,6.567l1.443,6.806l4.719,0.832l3.683-5.902l2.395-6.117l6.267,0.549l1.297,6.439
	l2.602,6.452h4.792l2.603-6.452l1.297-6.439l6.267-0.549l2.396,6.117l3.683,5.902l4.719-0.832l1.443-6.806l0.159-6.567l6.076-1.629
	l3.421,5.609l4.652,5.172l4.503-1.64l0.239-6.952l-0.984-6.495l5.701-2.658l4.343,4.929l5.479,4.286l4.15-2.396l-0.972-6.888
	l-2.097-6.226l5.152-3.609l5.133,4.101l6.141,3.27l3.671-3.08l-2.153-6.615l-3.146-5.767l4.449-4.449l5.766,3.147l6.615,2.152
	l3.08-3.67l-3.269-6.141l-4.101-5.133l3.608-5.153l6.226,2.097l6.889,0.973l2.396-4.15l-4.287-5.48l-4.929-4.342l2.658-5.701
	l6.496,0.983l6.952-0.239l1.639-4.502l-5.172-4.652l-5.609-3.422l1.629-6.076l6.567-0.158l6.806-1.443l0.832-4.719l-5.902-3.684
	l-6.116-2.395l0.548-6.268l6.439-1.297l6.453-2.602v-4.792l-6.453-2.602l-6.439-1.297l-0.548-6.267l6.116-2.395l5.902-3.683
	l-0.832-4.719l-6.806-1.443l-6.567-0.159l-1.629-6.076l5.609-3.421l5.172-4.652l-1.639-4.503l-6.952-0.239l-6.496,0.984
	l-2.658-5.701l4.929-4.343l4.287-5.48l-2.396-4.15l-6.889,0.972l-6.226,2.097l-3.608-5.153l4.101-5.133l3.269-6.141l-3.08-3.67
	l-6.615,2.153l-5.766,3.147l-4.449-4.449l3.146-5.767l2.153-6.615l-3.671-3.08l-6.141,3.269l-5.133,4.101l-5.152-3.609l2.097-6.226
	l0.972-6.888l-4.15-2.396l-5.479,4.286l-4.343,4.929l-5.701-2.658l0.984-6.496l-0.239-6.952l-4.503-1.639l-4.652,5.172l-3.421,5.609
	l-6.076-1.629l-0.159-6.567l-1.443-6.806l-4.719-0.832l-3.683,5.902l-2.396,6.117l-6.267-0.548l-1.297-6.44L123.33,0h-4.792
	l-2.602,6.452l-1.297,6.44l-6.267,0.548l-2.395-6.117l-3.683-5.902l-4.719,0.832l-1.443,6.806l-0.159,6.567l-6.076,1.629
	l-3.421-5.609l-4.652-5.172l-4.503,1.639l-0.239,6.952l0.984,6.496l-5.701,2.658l-4.343-4.929l-5.48-4.286l-4.15,2.396l0.972,6.888
	l2.097,6.226l-5.153,3.609l-5.133-4.101l-6.141-3.269l-3.67,3.08l2.153,6.615l3.147,5.767l-4.449,4.449l-5.767-3.147l-6.615-2.153
	l-3.08,3.67l3.269,6.141l4.101,5.133l-3.609,5.153l-6.226-2.097L17.4,58.392l-2.396,4.15l4.286,5.48l4.929,4.343l-2.658,5.701
	l-6.496-0.984l-6.952,0.239l-1.639,4.503l5.172,4.652l5.609,3.421l-1.629,6.076l-6.567,0.159l-6.806,1.443l-0.832,4.719l5.902,3.683
	l6.117,2.395L12.892,114.639z"/>
</svg>
