<?xml version="1.0" encoding="utf-8"?>
<!-- Generator: Adobe Illustrator 16.0.0, SVG Export Plug-In . SVG Version: 6.00 Build 0)  -->
<!DOCTYPE svg PUBLIC "-//W3C//DTD SVG 1.0//EN" "http://www.w3.org/TR/2001/REC-SVG-20010904/DTD/svg10.dtd">
<svg version="1.0" id="Layer_1" xmlns="http://www.w3.org/2000/svg" xmlns:xlink="http://www.w3.org/1999/xlink" x="0px" y="0px"
	 width="90.04px" height="90.04px" viewBox="0 0 90.04 90.04" enable-background="new 0 0 90.04 90.04" xml:space="preserve">
<path id="path2890" fill="none" stroke="#FFFFFF" d="M76.513,40.395l4.02-0.59l2.357,0.229l6.65,3.01v3.952l-6.65,3.01l-2.357,0.229
	l-4.02-0.59l-1.906,7.117l3.775,1.498l1.928,1.377l4.253,5.932l-1.976,3.422l-7.264-0.718l-2.156-0.979l-3.186-2.521l-5.209,5.21
	l2.521,3.185l0.979,2.158l0.719,7.263l-3.422,1.976l-5.933-4.253l-1.377-1.928l-1.498-3.776l-7.117,1.907l0.591,4.021l-0.229,2.356
	l-3.011,6.649h-3.951l-3.01-6.649l-0.229-2.356l0.59-4.021l-7.117-1.907l-1.498,3.776l-1.377,1.928l-5.932,4.253l-3.422-1.976
	l0.718-7.263l0.98-2.158l2.521-3.185l-5.21-5.21l-3.185,2.521l-2.157,0.979l-7.263,0.718l-1.976-3.422l4.253-5.932l1.928-1.377
	l3.776-1.498l-1.907-7.117l-4.02,0.59L7.15,50.006l-6.65-3.01v-3.952l6.65-3.01l2.357-0.229l4.02,0.59l1.907-7.117l-3.776-1.498
	L9.73,30.403l-4.253-5.932l1.976-3.422l7.263,0.718l2.157,0.98l3.185,2.521l5.21-5.21l-2.521-3.185l-0.98-2.157l-0.718-7.263
	l3.422-1.976l5.932,4.253l1.377,1.928l1.498,3.776l7.117-1.907l-0.59-4.02l0.229-2.357l3.01-6.65h3.951l3.011,6.65l0.229,2.357
	l-0.591,4.02l7.117,1.907l1.498-3.776l1.377-1.928l5.933-4.253l3.422,1.976l-0.719,7.263l-0.979,2.157l-2.521,3.185l5.209,5.21
	l3.186-2.521l2.156-0.98l7.264-0.718l1.977,3.422l-4.254,5.932l-1.928,1.377l-3.775,1.498L76.513,40.395z"/>
</svg>
