<?xml version="1.0" encoding="utf-8"?>
<!-- Generator: Adobe Illustrator 16.0.0, SVG Export Plug-In . SVG Version: 6.00 Build 0)  -->
<!DOCTYPE svg PUBLIC "-//W3C//DTD SVG 1.0//EN" "http://www.w3.org/TR/2001/REC-SVG-20010904/DTD/svg10.dtd">
<svg version="1.0" id="Layer_1" xmlns="http://www.w3.org/2000/svg" xmlns:xlink="http://www.w3.org/1999/xlink" x="0px" y="0px"
	 width="216.399px" height="216.399px" viewBox="0 0 216.399 216.399" enable-background="new 0 0 216.399 216.399"
	 xml:space="preserve">
<path id="path3207" fill="none" stroke="#FFFFFF" d="M12.902,102.093l-0.222-0.014l-6.216,1.123L0,105.835v4.729l6.464,2.633
	l6.216,1.123l0.222-0.014l0.64,6.495l-0.221,0.03l-5.878,2.314l-5.825,3.842l0.923,4.64l6.852,1.321l6.316-0.111l0.216-0.057
	l1.895,6.246l-0.212,0.071l-5.313,3.416l-4.963,4.906l1.81,4.37l6.978-0.041l6.173-1.342l0.2-0.098l3.077,5.756l-0.193,0.112
	l-4.545,4.388l-3.911,5.779l2.628,3.934l6.837-1.402l5.792-2.52l0.178-0.136l4.14,5.046l-0.167,0.147l-3.602,5.188l-2.708,6.433
	l3.345,3.345l6.432-2.708l5.189-3.602l0.147-0.167l5.046,4.14l-0.136,0.178l-2.519,5.792l-1.402,6.837l3.933,2.628l5.78-3.911
	l4.387-4.545l0.112-0.192l5.756,3.077l-0.099,0.199l-1.341,6.174l-0.041,6.978l4.37,1.81l4.906-4.963l3.416-5.312l0.071-0.212
	l6.246,1.895l-0.057,0.216l-0.112,6.316l1.322,6.852l4.639,0.924l3.844-5.825l2.313-5.878l0.03-0.222l6.495,0.641l-0.015,0.222
	l1.123,6.216l2.634,6.464h4.729l2.633-6.464l1.123-6.216l-0.014-0.222l6.495-0.641l0.029,0.222l2.314,5.878l3.843,5.825l4.64-0.924
	l1.321-6.852l-0.111-6.316l-0.058-0.216l6.246-1.895l0.072,0.212l3.416,5.312l4.906,4.963l4.369-1.81l-0.041-6.978l-1.341-6.174
	l-0.098-0.199l5.756-3.077l0.112,0.192l4.387,4.545l5.78,3.911l3.933-2.628l-1.401-6.837l-2.52-5.792l-0.136-0.178l5.046-4.14
	l0.146,0.167l5.189,3.602l6.432,2.708l3.346-3.345l-2.708-6.433l-3.603-5.188l-0.167-0.147l4.141-5.046l0.178,0.136l5.793,2.52
	l6.836,1.402l2.629-3.934l-3.912-5.779l-4.545-4.388l-0.193-0.112l3.078-5.756l0.199,0.098l6.174,1.342l6.979,0.041l1.809-4.37
	l-4.963-4.906l-5.312-3.416l-0.213-0.071l1.896-6.246l0.215,0.057l6.316,0.111l6.852-1.321l0.924-4.64l-5.826-3.842l-5.877-2.314
	l-0.221-0.03l0.639-6.495l0.223,0.014l6.217-1.123l6.463-2.633v-4.729l-6.463-2.633l-6.217-1.123l-0.223,0.014l-0.639-6.495
	l0.221-0.03l5.877-2.314l5.826-3.843l-0.924-4.639l-6.852-1.322l-6.316,0.112l-0.215,0.057l-1.896-6.246l0.213-0.072l5.312-3.416
	l4.963-4.906l-1.809-4.37l-6.979,0.041l-6.174,1.341l-0.199,0.098l-3.078-5.756l0.193-0.112l4.545-4.387l3.912-5.78l-2.629-3.933
	l-6.836,1.402l-5.793,2.519l-0.178,0.136l-4.141-5.046l0.167-0.147l3.603-5.189l2.708-6.432l-3.346-3.345l-6.432,2.708l-5.189,3.603
	l-0.146,0.167l-5.046-4.14l0.136-0.178l2.52-5.792l1.401-6.837l-3.933-2.628l-5.78,3.911l-4.387,4.545l-0.112,0.193l-5.756-3.077
	l0.098-0.2l1.341-6.173l0.041-6.978l-4.369-1.81l-4.906,4.963l-3.416,5.313l-0.072,0.212l-6.246-1.895l0.058-0.216l0.111-6.316
	l-1.321-6.852l-4.64-0.923l-3.843,5.825l-2.314,5.878l-0.029,0.221l-6.495-0.64l0.014-0.222l-1.123-6.216L110.565,0h-4.729
	l-2.634,6.464l-1.123,6.216l0.015,0.222l-6.495,0.64l-0.03-0.221l-2.313-5.878l-3.844-5.825l-4.639,0.923L83.45,9.393l0.112,6.316
	l0.057,0.216l-6.246,1.895l-0.071-0.212l-3.416-5.313l-4.906-4.963l-4.37,1.81l0.041,6.978l1.341,6.173l0.099,0.2l-5.756,3.077
	l-0.112-0.193l-4.387-4.545l-5.78-3.911l-3.933,2.628l1.402,6.837l2.519,5.792l0.136,0.178l-5.046,4.14l-0.147-0.167l-5.189-3.603
	l-6.432-2.708l-3.345,3.345l2.708,6.432l3.602,5.189l0.167,0.147l-4.14,5.046l-0.178-0.136l-5.792-2.519l-6.837-1.402l-2.628,3.933
	l3.911,5.78l4.545,4.387l0.193,0.112l-3.077,5.756l-0.2-0.098L16.12,64.65l-6.978-0.041l-1.81,4.37l4.963,4.906l5.313,3.416
	l0.212,0.072l-1.895,6.246l-0.216-0.057L9.393,83.45l-6.852,1.322l-0.923,4.639l5.825,3.843l5.878,2.314l0.221,0.03L12.902,102.093z
	"/>
</svg>
