<?xml version="1.0" encoding="utf-8"?>
<!-- Generator: Adobe Illustrator 16.0.0, SVG Export Plug-In . SVG Version: 6.00 Build 0)  -->
<!DOCTYPE svg PUBLIC "-//W3C//DTD SVG 1.0//EN" "http://www.w3.org/TR/2001/REC-SVG-20010904/DTD/svg10.dtd">
<svg version="1.0" id="Layer_1" xmlns="http://www.w3.org/2000/svg" xmlns:xlink="http://www.w3.org/1999/xlink" x="0px" y="0px"
	 width="139.986px" height="139.986px" viewBox="0 0 139.986 139.986" enable-background="new 0 0 139.986 139.986"
	 xml:space="preserve">
<path id="path3034" fill="none" stroke="#FFFFFF" d="M127.04,64.647l2.516-0.236l3.904,0.587l6.527,2.783v4.424l-6.527,2.783
	l-3.904,0.587l-2.516-0.236l-1.141,7.198l2.467,0.554l3.531,1.765l5.348,4.664l-1.367,4.206l-7.068,0.63l-3.893-0.647l-2.32-1.002
	l-3.309,6.493l2.174,1.288l2.812,2.77l3.646,6.088l-2.6,3.578l-6.918-1.584l-3.504-1.82l-1.896-1.669l-5.152,5.153l1.668,1.896
	l1.82,3.504l1.586,6.917l-3.578,2.6l-6.09-3.645l-2.768-2.814l-1.289-2.174l-6.492,3.309l1,2.32l0.648,3.895l-0.631,7.068
	l-4.205,1.366l-4.664-5.348l-1.766-3.532l-0.553-2.465l-7.197,1.14l0.236,2.517l-0.588,3.904l-2.783,6.526h-4.424l-2.783-6.526
	l-0.586-3.904l0.234-2.517l-7.197-1.14l-0.553,2.465l-1.766,3.532l-4.664,5.348l-4.205-1.366l-0.631-7.068l0.648-3.895l1.002-2.32
	l-6.494-3.309l-1.287,2.174l-2.77,2.814l-6.09,3.645l-3.578-2.6l1.586-6.917l1.82-3.504l1.668-1.896l-5.152-5.153l-1.896,1.669
	l-3.504,1.82l-6.916,1.584l-2.602-3.578l3.646-6.088l2.812-2.77l2.176-1.288l-3.311-6.493l-2.318,1.002l-3.895,0.647l-7.068-0.63
	l-1.367-4.206l5.348-4.664l3.533-1.765l2.465-0.554l-1.141-7.198l-2.516,0.236l-3.904-0.587L0,72.205v-4.424l6.527-2.783
	l3.904-0.587l2.516,0.236l1.141-7.198l-2.465-0.553L8.09,55.131l-5.348-4.664l1.367-4.206l7.068-0.63l3.895,0.648l2.318,1.001
	l3.311-6.493l-2.176-1.288l-2.812-2.769l-3.646-6.089l2.602-3.578l6.916,1.585l3.504,1.82l1.896,1.669l5.152-5.153l-1.668-1.896
	l-1.82-3.504l-1.586-6.917l3.578-2.6l6.09,3.645l2.77,2.814l1.287,2.174l6.494-3.309l-1.002-2.32l-0.648-3.894l0.631-7.068
	l4.205-1.367l4.664,5.348l1.766,3.532l0.553,2.465l7.197-1.14l-0.234-2.516l0.586-3.904L67.781,0h4.424l2.783,6.527l0.588,3.904
	l-0.236,2.516l7.197,1.14l0.553-2.465l1.766-3.532l4.664-5.348l4.205,1.367l0.631,7.068l-0.648,3.894l-1,2.32L99.2,20.7l1.289-2.174
	l2.768-2.814l6.09-3.645l3.578,2.6l-1.586,6.917l-1.82,3.504l-1.668,1.896l5.152,5.153l1.896-1.669l3.504-1.82l6.918-1.585
	l2.6,3.578l-3.646,6.089l-2.812,2.769l-2.174,1.288l3.309,6.493l2.32-1.001l3.893-0.648l7.068,0.63l1.367,4.206l-5.348,4.664
	l-3.531,1.765l-2.467,0.553L127.04,64.647z"/>
</svg>
