<?xml version="1.0" encoding="utf-8"?>
<!-- Generator: Adobe Illustrator 16.0.0, SVG Export Plug-In . SVG Version: 6.00 Build 0)  -->
<!DOCTYPE svg PUBLIC "-//W3C//DTD SVG 1.0//EN" "http://www.w3.org/TR/2001/REC-SVG-20010904/DTD/svg10.dtd">
<svg version="1.0" id="Layer_1" xmlns="http://www.w3.org/2000/svg" xmlns:xlink="http://www.w3.org/1999/xlink" x="0px" y="0px"
	 width="50.842px" height="45.526px" viewBox="0 0 50.842 45.526" enable-background="new 0 0 50.842 45.526" xml:space="preserve">
<path id="path2824" fill="none" stroke="#FFFFFF" d="M37.669,19.285l5.016-1.425l1.184-0.04l6.973,3.447v2.992l-6.973,3.447
	l-1.184-0.04l-5.016-1.425l-3.112,5.39l3.742,3.632l0.627,1.006l0.501,7.762l-2.591,1.496l-6.472-4.315l-0.557-1.045l-1.274-5.058
	h-6.224l-1.274,5.058l-0.557,1.045l-6.472,4.315l-2.591-1.496l0.501-7.762l0.627-1.006l3.742-3.632l-3.112-5.39l-5.016,1.425
	l-1.184,0.04L0,24.259v-2.992l6.973-3.447l1.184,0.04l5.016,1.425l3.112-5.39l-3.742-3.632l-0.627-1.005l-0.501-7.762L14.006,0
	l6.472,4.315l0.557,1.045l1.274,5.057h6.224l1.274-5.057l0.557-1.045L36.836,0l2.591,1.496l-0.501,7.762l-0.627,1.005l-3.742,3.632
	L37.669,19.285z"/>
</svg>
