<?xml version="1.0" encoding="utf-8"?><!-- Generator: Iparigrafika Gear Generator by Abel Vincze http://geargenerator.com/ --><svg version="1.2" class="svggear" xmlns="http://www.w3.org/2000/svg" xmlns:xlink="http://www.w3.org/1999/xlink" x="0px" y="0px" width="150px" height="150px" viewBox="-75 -75 150 150" overflow="scroll" xml:space="preserve"><polygon id="gearpoly0" data-id="0" class="gear" fill="#ddd" stroke="#444" stroke-width="1" stroke-miterlimit="10" points="21.25,0 44.5571,-0.0001 44.7939,-0.017 45.3638,-0.1047 46.2537,-0.3209 47.4429,-0.7214 48.9038,-1.3593 50.6016,-2.2839 52.4951,-3.5402 54.5374,-5.1678 56.6761,-7.2008 58.8542,-9.6664 61.0108,-12.5851 63.0821,-15.9698 65.0018,-19.8257 66.7025,-24.1498 68.1162,-28.9309 66.9776,-31.4772 62.4717,-33.6113 58.1151,-35.2269 53.9614,-36.367 50.0578,-37.08 46.4446,-37.4187 43.1547,-37.4393 40.2137,-37.2008 37.6389,-36.7639 35.4401,-36.1902 33.6191,-35.5414 32.1696,-34.8779 31.0782,-34.2586 30.3238,-33.7395 29.8785,-33.3732 29.7079,-33.2081 14.1682,-15.8375 0,-21.25 -0.0001,-44.5571 -0.017,-44.7939 -0.1047,-45.3638 -0.3209,-46.2537 -0.7214,-47.4429 -1.3593,-48.9038 -2.2839,-50.6016 -3.5402,-52.4951 -5.1678,-54.5374 -7.2008,-56.6761 -9.6664,-58.8542 -12.5851,-61.0108 -15.9698,-63.0821 -19.8257,-65.0018 -24.1498,-66.7025 -28.9309,-68.1162 -31.4772,-66.9776 -33.6113,-62.4717 -35.2269,-58.1151 -36.367,-53.9614 -37.08,-50.0578 -37.4187,-46.4446 -37.4393,-43.1547 -37.2008,-40.2137 -36.7639,-37.6389 -36.1902,-35.4401 -35.5414,-33.6191 -34.8779,-32.1696 -34.2586,-31.0782 -33.7395,-30.3238 -33.3732,-29.8785 -33.2081,-29.7079 -15.8375,-14.1682 -21.25,0 -44.5571,0.0001 -44.7939,0.017 -45.3638,0.1047 -46.2537,0.3209 -47.4429,0.7214 -48.9038,1.3593 -50.6016,2.2839 -52.4951,3.5402 -54.5374,5.1678 -56.6761,7.2008 -58.8542,9.6664 -61.0108,12.5851 -63.0821,15.9698 -65.0018,19.8257 -66.7025,24.1498 -68.1162,28.9309 -66.9776,31.4772 -62.4717,33.6113 -58.1151,35.2269 -53.9614,36.367 -50.0578,37.08 -46.4446,37.4187 -43.1547,37.4393 -40.2137,37.2008 -37.6389,36.7639 -35.4401,36.1902 -33.6191,35.5414 -32.1696,34.8779 -31.0782,34.2586 -30.3238,33.7395 -29.8785,33.3732 -29.7079,33.2081 -14.1682,15.8375 0,21.25 0.0001,44.5571 0.017,44.7939 0.1047,45.3638 0.3209,46.2537 0.7214,47.4429 1.3593,48.9038 2.2839,50.6016 3.5402,52.4951 5.1678,54.5374 7.2008,56.6761 9.6664,58.8542 12.5851,61.0108 15.9698,63.0821 19.8257,65.0018 24.1498,66.7025 28.9309,68.1162 31.4772,66.9776 33.6113,62.4717 35.2269,58.1151 36.367,53.9614 37.08,50.0578 37.4187,46.4446 37.4393,43.1547 37.2008,40.2137 36.7639,37.6389 36.1902,35.4401 35.5414,33.6191 34.8779,32.1696 34.2586,31.0782 33.7395,30.3238 33.3732,29.8785 33.2081,29.7079 15.8375,14.1682 "/><g class="guides"><polyline fill="none" stroke="#444" stroke-width="0.5" stroke-miterlimit="10" points="10,0 -10,0"/><polyline fill="none" stroke="#444" stroke-width="0.5" stroke-miterlimit="10" points="0,10 0,-10"/></g><circle fill="#c00" class="firstmarker" stroke="none" stroke-miterlimit="10" cx="45.6445" cy="-20.4103" r="9.8125"/><g class="geartext"><g class="text"><polyline fill="none" stroke="#444" stroke-width="0.5" stroke-linecap="square" stroke-miterlimit="1"  points="-8.3 -13.9 -8.73 -13.63 -9.16 -13.35 -9.57 -13.06 -9.97 -12.75 "/><polyline fill="none" stroke="#444" stroke-width="0.5" stroke-linecap="square" stroke-miterlimit="1"  points="-8.58 -12.52 -9.73 -14.19 "/><polyline fill="none" stroke="#444" stroke-width="0.5" stroke-linecap="square" stroke-miterlimit="1"  points="-8.82 -14.77 -9.01 -14.06 -9.16 -13.35 -9.27 -12.65 -9.35 -11.96 "/><polyline fill="none" stroke="#444" stroke-width="0.5" stroke-linecap="square" stroke-miterlimit="1"  points="-7.79 -13.03 -8.46 -13.21 -9.16 -13.35 -9.87 -13.47 -10.6 -13.55 "/><polyline fill="none" stroke="#444" stroke-width="0.5" stroke-linecap="square" stroke-miterlimit="1"  points="-5.66 -14.08 -5.9 -13.44 -6.31 -13.24 -6.96 -13.49 -7.88 -15.29 -7.62 -15.99 -7.12 -16.22 -6.42 -15.96 -5.66 -14.08 "/><polyline fill="none" stroke="#444" stroke-width="0.5" stroke-linecap="square" stroke-miterlimit="1"  points="-0.68 -17.7 -0.57 -14.66 -1.08 -15.39 -1.63 -16.11 -2.24 -16.8 -2.88 -17.47 -2.39 -14.48 "/><polyline fill="none" stroke="#444" stroke-width="0.5" stroke-linecap="square" stroke-miterlimit="1"  points="2.48 -16.51 1.96 -16.58 1.44 -16.63 0.92 -16.67 0.4 -16.69 "/><polyline fill="none" stroke="#444" stroke-width="0.5" stroke-linecap="square" stroke-miterlimit="1"  points="2.33 -15.51 1.84 -15.58 1.35 -15.63 0.86 -15.66 0.38 -15.68 "/><polyline fill="none" stroke="#444" stroke-width="0.5" stroke-linecap="square" stroke-miterlimit="1"  points="5.18 -14.81 4.71 -14.96 4.24 -15.1 3.77 -15.22 3.29 -15.34 3.93 -15.88 4.61 -16.4 5.32 -16.89 4.41 -13.99 "/><polyline fill="none" stroke="#444" stroke-width="0.5" stroke-linecap="square" stroke-miterlimit="1"  points="8.53 -13.76 8.96 -13.49 9.38 -13.2 9.78 -12.9 10.5 -12.98 10.82 -13.37 10.7 -14.11 10.26 -14.44 9.8 -14.75 9.33 -15.05 7.73 -12.47 "/><polyline fill="none" stroke="#444" stroke-width="0.5" stroke-linecap="square" stroke-miterlimit="1"  points="9.92 -10.81 11.29 -12.3 "/><polyline fill="none" stroke="#444" stroke-width="0.5" stroke-linecap="square" stroke-miterlimit="1"  points="11.63 -12.67 11.98 -13.05 "/><polyline fill="none" stroke="#444" stroke-width="0.5" stroke-linecap="square" stroke-miterlimit="1"  points="12.17 -9.07 11.48 -9.13 11.58 -9.81 13.51 -11.45 "/><polyline fill="none" stroke="#444" stroke-width="0.5" stroke-linecap="square" stroke-miterlimit="1"  points="13.39 -9.98 13.07 -10.39 12.74 -10.8 12.39 -11.19 12.04 -11.57 "/><polyline fill="none" stroke="#444" stroke-width="0.5" stroke-linecap="square" stroke-miterlimit="1"  points="13.19 -6.42 12.98 -6.83 12.76 -7.23 12.53 -7.63 12.71 -8.29 13.56 -8.85 14.26 -8.68 14.53 -8.23 14.78 -7.77 15.01 -7.31 "/><polyline fill="none" stroke="#444" stroke-width="0.5" stroke-linecap="square" stroke-miterlimit="1"  points="14.5 -5.97 15.16 -5.69 15.81 -5.38 15.97 -4.88 15.62 -4.25 14.16 -3.85 "/><polyline fill="none" stroke="#444" stroke-width="0.5" stroke-linecap="square" stroke-miterlimit="1"  points="13.57 -5.59 16.37 -6.74 "/><polyline fill="none" stroke="#444" stroke-width="0.5" stroke-linecap="square" stroke-miterlimit="1"  points="14.66 -0.69 14.67 -0.23 14.67 0.23 14.66 0.69 15.13 1.18 17.15 1.34 17.69 0.83 17.71 0.28 17.71 -0.28 17.69 -0.83 "/><polyline fill="none" stroke="#444" stroke-width="0.5" stroke-linecap="square" stroke-miterlimit="1"  points="17.71 -0.28 14.67 -0.23 "/><polyline fill="none" stroke="#444" stroke-width="0.5" stroke-linecap="square" stroke-miterlimit="1"  points="16.11 4.38 16.24 3.88 16.35 3.37 16.45 2.86 16.53 2.34 "/><polyline fill="none" stroke="#444" stroke-width="0.5" stroke-linecap="square" stroke-miterlimit="1"  points="15.13 4.12 15.26 3.64 15.36 3.16 15.45 2.68 15.53 2.2 "/><polyline fill="none" stroke="#444" stroke-width="0.5" stroke-linecap="square" stroke-miterlimit="1"  points="16.28 5.54 16.58 6.23 13.74 5.16 "/><polyline fill="none" stroke="#444" stroke-width="0.5" stroke-linecap="square" stroke-miterlimit="1"  points="13.57 5.59 13.74 5.16 13.89 4.73 "/><polyline fill="none" stroke="#444" stroke-width="0.5" stroke-linecap="square" stroke-miterlimit="1"  points="13.28 9.27 12.98 9.68 12.67 10.08 12.35 10.47 12.39 11.19 12.77 11.53 13.51 11.45 13.86 11.02 14.2 10.58 14.52 10.14 12.03 8.4 "/><polyline fill="none" stroke="#444" stroke-width="0.5" stroke-linecap="square" stroke-miterlimit="1"  points="10.09 13.3 10.5 12.98 10.9 12.65 11.29 12.3 11.67 11.94 "/><polyline fill="none" stroke="#444" stroke-width="0.5" stroke-linecap="square" stroke-miterlimit="1"  points="9.48 12.5 9.86 12.19 10.24 11.88 10.61 11.55 10.96 11.22 "/><polyline fill="none" stroke="#444" stroke-width="0.5" stroke-linecap="square" stroke-miterlimit="1"  points="6.98 14.04 7.42 13.82 7.85 13.58 8.27 13.33 8.68 13.06 8.62 13.9 8.52 14.75 8.38 15.6 6.94 12.93 "/><polyline fill="none" stroke="#444" stroke-width="0.5" stroke-linecap="square" stroke-miterlimit="1"  points="3.89 15.72 3.4 15.83 2.9 15.93 2.4 16.01 1.96 16.58 2.02 17.08 2.63 17.51 3.17 17.42 3.72 17.31 4.26 17.19 3.53 14.24 "/><polyline fill="none" stroke="#444" stroke-width="0.5" stroke-linecap="square" stroke-miterlimit="1"  points="0.81 14.65 0.86 15.66 0.4 16.69 -0.13 17.71 -0.64 16.68 -1.09 15.65 -1.02 14.64 "/><polyline fill="none" stroke="#444" stroke-width="0.5" stroke-linecap="square" stroke-miterlimit="1"  points="0.86 15.66 0.38 15.68 -0.11 15.68 -0.6 15.67 -1.09 15.65 "/><polyline fill="none" stroke="#444" stroke-width="0.5" stroke-linecap="square" stroke-miterlimit="1"  points="-4.25 16.15 -3.74 16.27 -3.23 16.38 -2.72 16.47 -2.2 16.55 "/><polyline fill="none" stroke="#444" stroke-width="0.5" stroke-linecap="square" stroke-miterlimit="1"  points="-3.99 15.17 -3.52 15.29 -3.04 15.39 -2.55 15.48 -2.07 15.55 "/><polyline fill="none" stroke="#444" stroke-width="0.5" stroke-linecap="square" stroke-miterlimit="1"  points="-6.31 13.24 -5.9 13.44 -5.47 13.61 -5.05 13.78 -4.61 13.93 -4.93 14.89 -5.57 15.2 -6.04 15.02 -6.51 14.83 -7.18 15.07 -7.4 15.53 -7.12 16.22 -6.61 16.43 -6.09 16.63 -5.41 16.33 "/><polyline fill="none" stroke="#444" stroke-width="0.5" stroke-linecap="square" stroke-miterlimit="1"  points="-8.6 15.48 -9.08 15.2 -9.55 14.91 -10.01 14.6 -10.47 14.28 -9.16 13.35 -7.92 12.35 "/></g></g><g class="guides gearguides" opacity="0.2"><circle class="pitch" fill="none" stroke="#f00" stroke-miterlimit="10" cx="0" cy="0" r="50"/><circle class="outer" fill="none" stroke="#ccc" stroke-miterlimit="10" stroke-dasharray="2,2" cx="0" cy="0" r="75"/><circle class="base" fill="none" stroke="#00f" stroke-miterlimit="10" stroke-dasharray="2,2" cx="0" cy="0" r="44.55"/></g></svg>