<?xml version="1.0" encoding="utf-8"?>
<!-- Generator: Adobe Illustrator 16.0.0, SVG Export Plug-In . SVG Version: 6.00 Build 0)  -->
<!DOCTYPE svg PUBLIC "-//W3C//DTD SVG 1.0//EN" "http://www.w3.org/TR/2001/REC-SVG-20010904/DTD/svg10.dtd">
<svg version="1.0" id="Layer_1" xmlns="http://www.w3.org/2000/svg" xmlns:xlink="http://www.w3.org/1999/xlink" x="0px" y="0px"
	 width="331.006px" height="330.662px" viewBox="0 0 331.006 330.662" enable-background="new 0 0 331.006 330.662"
	 xml:space="preserve">
<path id="path3432" fill="none" stroke="#FFFFFF" d="M318.149,158.709l6.43,1.623l6.428,2.531v4.937l-6.428,2.529l-6.43,1.623
	l-0.375,5.941l6.178,2.416l6.059,3.314l-0.619,4.898l-6.693,1.705l-6.582,0.805l-1.117,5.846l5.826,3.172l5.596,4.049l-1.229,4.781
	l-6.854,0.854l-6.633-0.027l-1.838,5.66l5.381,3.877l5.043,4.719l-1.816,4.59l-6.906-0.014l-6.578-0.857l-2.533,5.385l4.854,4.52
	l4.412,5.314l-2.379,4.326l-6.85-0.879l-6.418-1.676l-3.189,5.025l4.25,5.092l3.711,5.826l-2.9,3.994l-6.688-1.73l-6.158-2.467
	l-3.793,4.586l3.578,5.584l2.951,6.244l-3.379,3.6l-6.416-2.555l-5.799-3.219l-4.34,4.074l2.85,5.99l2.146,6.564l-3.805,3.146
	l-6.047-3.34l-5.35-3.92l-4.814,3.498l2.076,6.301l1.307,6.781l-4.168,2.645l-5.582-4.07l-4.814-4.559l-5.215,2.865l1.27,6.512
	l0.445,6.891l-4.467,2.104l-5.025-4.738l-4.207-5.127l-5.534,2.19l0.444,6.619l-0.421,6.895l-4.695,1.523l-4.393-5.33l-3.531-5.613
	l-5.765,1.48l-0.389,6.621l-1.281,6.787l-4.85,0.924l-3.69-5.838l-2.8-6.014l-5.903,0.746l-1.216,6.521l-2.123,6.572l-4.927,0.309
	l-2.93-6.254l-2.022-6.316h-5.952l-2.023,6.316l-2.93,6.254l-4.926-0.309l-2.123-6.572l-1.216-6.521l-5.904-0.746l-2.799,6.014
	l-3.691,5.838l-4.849-0.924l-1.282-6.787l-0.388-6.621l-5.766-1.48l-3.531,5.613l-4.393,5.33l-4.695-1.523l-0.421-6.895l0.444-6.619
	l-5.533-2.19l-4.207,5.127l-5.026,4.738l-4.467-2.104l0.446-6.891l1.271-6.512l-5.216-2.865l-4.815,4.559l-5.581,4.07l-4.168-2.645
	l1.307-6.781l2.076-6.301l-4.815-3.498l-5.35,3.92l-6.047,3.34l-3.803-3.146l2.146-6.564l2.849-5.99l-4.339-4.074l-5.799,3.219
	l-6.417,2.555l-3.379-3.6l2.952-6.244l3.577-5.584l-3.793-4.586l-6.157,2.467l-6.687,1.73l-2.901-3.994l3.711-5.826l4.249-5.092
	l-3.189-5.025l-6.417,1.676l-6.851,0.879l-2.378-4.326l4.412-5.314l4.854-4.52l-2.534-5.385l-6.577,0.857l-6.907,0.014l-1.817-4.59
	l5.043-4.719l5.382-3.877l-1.839-5.66l-6.632,0.027l-6.854-0.854l-1.228-4.781l5.595-4.049l5.826-3.172l-1.116-5.846l-6.583-0.805
	l-6.693-1.705l-0.619-4.898l6.058-3.314l6.178-2.416l-0.374-5.941l-6.431-1.623L0,167.8v-4.937l6.427-2.531l6.431-1.623l0.374-5.939
	l-6.178-2.416l-6.058-3.316l0.619-4.896l6.693-1.705l6.583-0.805l1.116-5.846l-5.826-3.172l-5.595-4.049l1.228-4.781l6.854-0.854
	l6.632,0.027l1.839-5.662l-5.382-3.875l-5.043-4.719l1.817-4.59l6.907,0.012l6.577,0.859l2.534-5.385l-4.854-4.521l-4.412-5.312
	l2.378-4.326l6.851,0.879l6.417,1.676l3.189-5.025l-4.249-5.094l-3.711-5.824l2.901-3.994l6.687,1.73l6.157,2.467l3.793-4.586
	l-3.577-5.586l-2.952-6.244l3.379-3.598l6.417,2.553l5.799,3.221l4.339-4.074l-2.849-5.99l-2.146-6.564l3.803-3.146l6.047,3.338
	l5.35,3.922l4.815-3.498l-2.076-6.301l-1.307-6.781l4.168-2.645l5.581,4.07l4.815,4.559l5.216-2.867l-1.271-6.51l-0.446-6.891
	l4.467-2.104l5.026,4.738l4.207,5.127l5.533-2.191l-0.444-6.617l0.421-6.895l4.695-1.525l4.394,5.33l3.53,5.615l5.766-1.48
	l0.388-6.621l1.282-6.787l4.849-0.924l3.691,5.838l2.799,6.014l5.904-0.746l1.216-6.521l2.123-6.572L157.574,0l2.93,6.256
	l2.023,6.316h5.952l2.022-6.316L173.432,0l4.927,0.311l2.123,6.572l1.216,6.521l5.903,0.746l2.8-6.014l3.69-5.838l4.85,0.924
	l1.281,6.787l0.389,6.621l5.765,1.48l3.531-5.615l4.393-5.33l4.695,1.525l0.421,6.895l-0.444,6.617l5.534,2.191l4.207-5.127
	l5.025-4.738l4.467,2.104l-0.445,6.891l-1.27,6.51l5.215,2.867l4.816-4.559l5.58-4.07l4.168,2.645l-1.307,6.781l-2.076,6.301
	l4.814,3.498l5.35-3.922l6.047-3.338l3.805,3.146l-2.146,6.564l-2.85,5.99l4.34,4.074l5.799-3.221l6.416-2.553l3.379,3.598
	l-2.951,6.244l-3.578,5.586l3.795,4.586l6.156-2.467l6.688-1.73l2.9,3.994l-3.711,5.824l-4.25,5.094l3.189,5.025l6.418-1.676
	l6.85-0.879l2.379,4.326l-4.412,5.312l-4.854,4.521l2.533,5.385l6.578-0.859l6.906-0.012l1.816,4.59l-5.043,4.719l-5.381,3.875
	l1.838,5.662l6.633-0.027l6.854,0.854l1.229,4.781l-5.596,4.049l-5.826,3.172l1.117,5.846l6.582,0.805l6.693,1.705l0.619,4.896
	l-6.059,3.316l-6.178,2.416L318.149,158.709z"/>
</svg>
