<?xml version="1.0" encoding="utf-8"?>
<!-- Generator: Adobe Illustrator 16.0.0, SVG Export Plug-In . SVG Version: 6.00 Build 0)  -->
<!DOCTYPE svg PUBLIC "-//W3C//DTD SVG 1.0//EN" "http://www.w3.org/TR/2001/REC-SVG-20010904/DTD/svg10.dtd">
<svg version="1.0" id="Layer_1" xmlns="http://www.w3.org/2000/svg" xmlns:xlink="http://www.w3.org/1999/xlink" x="0px" y="0px"
	 width="394.672px" height="394.672px" viewBox="0 0 394.672 394.672" enable-background="new 0 0 394.672 394.672"
	 xml:space="preserve">
<path id="path3502" fill="none" stroke="#FFFFFF" d="M381.833,190.588l6.424,1.748l6.416,2.498v5.001l-6.416,2.498l-6.424,1.75
	l-0.305,5.826l6.205,2.41l6.121,3.156l-0.523,4.973l-6.643,1.816l-6.573,1.066l-0.912,5.764l5.92,3.045l5.758,3.777l-1.041,4.893
	l-6.795,1.109l-6.647,0.375l-1.51,5.637l5.568,3.646l5.331,4.359l-1.547,4.758l-6.874,0.393l-6.65-0.322l-2.09,5.447l5.156,4.209
	l4.846,4.893l-2.033,4.568l-6.879-0.324l-6.58-1.018l-2.648,5.199l4.689,4.727l4.307,5.372l-2.5,4.332l-6.807-1.045l-6.438-1.697
	l-3.178,4.893l4.17,5.191l3.721,5.792l-2.939,4.047l-6.658-1.75l-6.225-2.363l-3.672,4.535l3.604,5.598l3.096,6.15l-3.346,3.717
	l-6.441-2.438l-5.943-2.998l-4.125,4.125l3,5.943l2.436,6.441l-3.717,3.346l-6.15-3.096l-5.598-3.604l-4.535,3.672l2.363,6.225
	l1.75,6.658l-4.047,2.939l-5.793-3.721l-5.191-4.17l-4.893,3.178l1.699,6.438l1.043,6.807l-4.332,2.5l-5.371-4.307l-4.727-4.689
	l-5.197,2.648l1.016,6.58l0.326,6.879l-4.57,2.033l-4.891-4.846l-4.211-5.158l-5.447,2.092l0.322,6.65l-0.393,6.873l-4.758,1.547
	l-4.359-5.33l-3.646-5.568l-5.637,1.51l-0.373,6.646l-1.111,6.795l-4.893,1.039l-3.777-5.756l-3.045-5.92l-5.764,0.912l-1.066,6.572
	l-1.816,6.643l-4.973,0.523l-3.156-6.121l-2.41-6.205l-5.826,0.305l-1.748,6.424l-2.498,6.416h-5.002l-2.498-6.416l-1.75-6.424
	l-5.826-0.305l-2.41,6.205l-3.156,6.121l-4.973-0.523l-1.816-6.643l-1.066-6.572l-5.764-0.912l-3.045,5.92l-3.777,5.756
	l-4.893-1.039l-1.109-6.795l-0.375-6.646l-5.637-1.51l-3.646,5.568l-4.359,5.33l-4.758-1.547l-0.393-6.873l0.322-6.65l-5.447-2.092
	l-4.209,5.158l-4.893,4.846l-4.57-2.033l0.326-6.879l1.018-6.58l-5.199-2.648l-4.727,4.689l-5.371,4.307l-4.332-2.5l1.045-6.807
	l1.697-6.438l-4.893-3.178l-5.191,4.17l-5.793,3.721l-4.047-2.939l1.75-6.658l2.363-6.225l-4.535-3.672l-5.598,3.604l-6.15,3.096
	l-3.717-3.346l2.436-6.441l3-5.943l-4.125-4.125l-5.943,2.998l-6.441,2.438l-3.346-3.717l3.096-6.15l3.604-5.598l-3.672-4.535
	l-6.225,2.363l-6.658,1.75l-2.939-4.047l3.721-5.792l4.17-5.191l-3.178-4.893l-6.438,1.697l-6.807,1.045l-2.5-4.332l4.307-5.372
	l4.689-4.727l-2.648-5.199l-6.58,1.018l-6.879,0.324l-2.033-4.568l4.846-4.893l5.158-4.209l-2.092-5.447l-6.65,0.322l-6.873-0.393
	l-1.547-4.758l5.33-4.359l5.568-3.646l-1.51-5.637l-6.646-0.375l-6.795-1.109l-1.039-4.893l5.756-3.777l5.92-3.045l-0.912-5.764
	l-6.572-1.066l-6.643-1.816l-0.523-4.973l6.121-3.156l6.205-2.41l-0.305-5.826l-6.424-1.75L0,199.836v-5.001l6.416-2.498
	l6.424-1.748l0.305-5.826l-6.205-2.41l-6.121-3.156l0.523-4.973l6.643-1.816l6.572-1.066l0.912-5.764l-5.92-3.045l-5.756-3.777
	l1.039-4.893l6.795-1.111l6.646-0.373l1.51-5.637l-5.568-3.648l-5.33-4.357l1.547-4.758l6.873-0.393l6.65,0.322l2.092-5.447
	l-5.158-4.211l-4.846-4.891l2.033-4.57l6.879,0.326l6.58,1.016l2.648-5.197l-4.689-4.727l-4.307-5.371l2.5-4.332l6.807,1.043
	l6.438,1.699l3.178-4.893l-4.17-5.191l-3.721-5.793l2.939-4.047l6.658,1.75l6.225,2.363l3.672-4.535l-3.604-5.598l-3.096-6.15
	l3.346-3.717l6.441,2.436l5.943,3l4.125-4.125l-3-5.945l-2.436-6.439l3.717-3.346l6.15,3.096l5.598,3.604l4.535-3.672l-2.363-6.225
	l-1.75-6.658l4.047-2.941l5.793,3.723l5.191,4.17l4.893-3.178l-1.697-6.438l-1.045-6.806l4.332-2.501l5.371,4.307l4.727,4.69
	l5.199-2.648l-1.018-6.581l-0.326-6.878l4.57-2.034l4.893,4.846l4.209,5.157l5.447-2.091l-0.322-6.649l0.393-6.874l4.758-1.547
	l4.359,5.33l3.646,5.569l5.637-1.51l0.375-6.647l1.109-6.795l4.893-1.04l3.777,5.756l3.045,5.921l5.764-0.912l1.066-6.572
	l1.816-6.643l4.973-0.522l3.156,6.12l2.41,6.206l5.826-0.306l1.75-6.424L194.836,0h5.002l2.498,6.416l1.748,6.424l5.826,0.306
	l2.41-6.206l3.156-6.12l4.973,0.522l1.816,6.643l1.066,6.572l5.764,0.912l3.045-5.921l3.777-5.756l4.893,1.04l1.111,6.795
	l0.373,6.647l5.637,1.51l3.646-5.569l4.359-5.33l4.758,1.547l0.393,6.874l-0.322,6.649l5.447,2.091l4.211-5.157l4.891-4.846
	l4.57,2.034l-0.326,6.878l-1.016,6.581l5.197,2.648l4.727-4.69l5.371-4.307l4.332,2.501l-1.043,6.806l-1.699,6.438l4.893,3.178
	l5.191-4.17l5.793-3.723l4.047,2.941l-1.75,6.658l-2.363,6.225l4.535,3.672l5.598-3.604l6.15-3.096l3.717,3.346l-2.436,6.439
	l-3,5.945l4.125,4.125l5.943-3l6.441-2.436l3.346,3.717l-3.096,6.15l-3.604,5.598l3.672,4.535l6.225-2.363l6.658-1.75l2.939,4.047
	l-3.721,5.793l-4.17,5.191l3.178,4.893l6.438-1.699l6.807-1.043l2.5,4.332l-4.307,5.371l-4.689,4.727l2.648,5.197l6.58-1.016
	l6.879-0.326l2.033,4.57l-4.846,4.891l-5.156,4.211l2.09,5.447l6.65-0.322l6.874,0.393l1.547,4.758l-5.331,4.357l-5.568,3.648
	l1.51,5.637l6.647,0.373l6.795,1.111l1.041,4.893l-5.758,3.777l-5.92,3.045l0.912,5.764l6.573,1.066l6.643,1.816l0.523,4.973
	l-6.121,3.156l-6.205,2.41L381.833,190.588z"/>
</svg>
