<?xml version="1.0" encoding="utf-8"?>
<!-- Generator: Adobe Illustrator 16.0.0, SVG Export Plug-In . SVG Version: 6.00 Build 0)  -->
<!DOCTYPE svg PUBLIC "-//W3C//DTD SVG 1.0//EN" "http://www.w3.org/TR/2001/REC-SVG-20010904/DTD/svg10.dtd">
<svg version="1.0" id="Layer_1" xmlns="http://www.w3.org/2000/svg" xmlns:xlink="http://www.w3.org/1999/xlink" x="0px" y="0px"
	 width="190.93px" height="190.93px" viewBox="0 0 190.93 190.93" enable-background="new 0 0 190.93 190.93" xml:space="preserve">
<path id="path3151" fill="none" stroke="#FFFFFF" d="M12.912,89.594l-0.988-0.071l-5.445,0.945L0,93.138v4.654l6.479,2.67
	l5.445,0.944l0.988-0.071l0.764,6.774l-0.979,0.152l-5.1,2.132l-5.723,4.046l1.037,4.536l6.91,1.162l5.518-0.291l0.949-0.288
	l2.252,6.435l-0.922,0.365l-4.496,3.213l-4.678,5.217l2.018,4.193l6.996-0.404l5.316-1.513l0.859-0.492l3.627,5.772l-0.816,0.561
	l-3.668,4.135l-3.4,6.127l2.9,3.638l6.73-1.951l4.848-2.657l0.729-0.671l4.82,4.82l-0.672,0.729l-2.656,4.848l-1.951,6.729
	l3.637,2.901l6.127-3.4l4.135-3.669l0.561-0.816l5.773,3.627l-0.492,0.86l-1.512,5.316l-0.406,6.995l4.193,2.019l5.217-4.678
	l3.213-4.496l0.367-0.922l6.434,2.252l-0.289,0.948l-0.291,5.519l1.162,6.91l4.537,1.036l4.045-5.723l2.133-5.099l0.152-0.979
	l6.773,0.763l-0.07,0.989l0.943,5.445l2.67,6.479h4.655l2.67-6.479l0.945-5.445l-0.07-0.989l6.773-0.763l0.152,0.979l2.133,5.099
	l4.045,5.723l4.537-1.036l1.16-6.91l-0.291-5.519l-0.287-0.948l6.434-2.252l0.367,0.922l3.213,4.496l5.217,4.678l4.193-2.019
	l-0.406-6.995l-1.512-5.316l-0.492-0.86l5.771-3.627l0.562,0.816l4.133,3.669l6.127,3.4l3.639-2.901l-1.951-6.729l-2.656-4.848
	l-0.672-0.729l4.82-4.82l0.729,0.671l4.848,2.657l6.73,1.951l2.9-3.638l-3.4-6.127l-3.668-4.135l-0.816-0.561l3.625-5.772
	l0.861,0.492l5.316,1.513l6.994,0.404l2.02-4.193l-4.678-5.217l-4.496-3.213l-0.922-0.365l2.252-6.435l0.947,0.288l5.52,0.291
	l6.91-1.162l1.035-4.536l-5.721-4.046l-5.1-2.132l-0.979-0.152l0.764-6.774l0.988,0.071l5.445-0.944l6.479-2.67v-4.654l-6.479-2.67
	l-5.445-0.945l-0.988,0.071l-0.764-6.774l0.979-0.152l5.1-2.132l5.721-4.046l-1.035-4.536l-6.91-1.162l-5.52,0.291l-0.947,0.288
	l-2.252-6.434l0.922-0.366l4.496-3.213l4.678-5.217l-2.02-4.193l-6.994,0.405l-5.316,1.512l-0.861,0.492l-3.625-5.772l0.816-0.561
	l3.668-4.134l3.4-6.127l-2.9-3.638l-6.73,1.951l-4.848,2.657l-0.729,0.671l-4.82-4.82l0.672-0.729l2.656-4.847l1.951-6.73
	l-3.639-2.901l-6.127,3.4l-4.133,3.669l-0.562,0.816l-5.771-3.626l0.492-0.861l1.512-5.316l0.406-6.995l-4.193-2.019l-5.217,4.678
	l-3.213,4.496l-0.367,0.922l-6.434-2.252l0.287-0.948l0.291-5.519l-1.16-6.91l-4.537-1.036l-4.045,5.722l-2.133,5.099l-0.152,0.979
	l-6.773-0.763l0.07-0.989l-0.945-5.446L97.792,0h-4.655l-2.67,6.478l-0.943,5.446l0.07,0.989l-6.773,0.763l-0.152-0.979
	l-2.133-5.099L76.49,1.876l-4.537,1.036l-1.162,6.91l0.291,5.519l0.289,0.948l-6.434,2.252l-0.367-0.922l-3.213-4.496l-5.217-4.678
	l-4.193,2.019l0.406,6.995l1.512,5.316l0.492,0.861l-5.773,3.626l-0.561-0.816l-4.135-3.669l-6.127-3.4l-3.637,2.901l1.951,6.73
	l2.656,4.847l0.672,0.729l-4.82,4.82l-0.729-0.671l-4.848-2.657l-6.73-1.951l-2.9,3.638l3.4,6.127l3.668,4.134l0.816,0.561
	l-3.627,5.772l-0.859-0.492l-5.316-1.512l-6.996-0.405l-2.018,4.193l4.678,5.217l4.496,3.213l0.922,0.366l-2.252,6.434l-0.949-0.288
	l-5.518-0.291l-6.91,1.162L1.875,76.49l5.723,4.046l5.1,2.132l0.979,0.152L12.912,89.594z"/>
</svg>
