<?xml version="1.0" encoding="utf-8"?>
<!-- Generator: Adobe Illustrator 16.0.0, SVG Export Plug-In . SVG Version: 6.00 Build 0)  -->
<!DOCTYPE svg PUBLIC "-//W3C//DTD SVG 1.0//EN" "http://www.w3.org/TR/2001/REC-SVG-20010904/DTD/svg10.dtd">
<svg version="1.0" id="Layer_1" xmlns="http://www.w3.org/2000/svg" xmlns:xlink="http://www.w3.org/1999/xlink" x="0px" y="0px"
	 width="101.775px" height="100.14px" viewBox="0 0 101.775 100.14" enable-background="new 0 0 101.775 100.14"
	 xml:space="preserve">
<path id="path2920" fill="none" stroke="#FFFFFF" d="M88.776,45.228l3.649-0.466l2.745,0.318l6.604,2.934v4.112l-6.604,2.934
	l-2.745,0.318l-3.649-0.467l-1.65,7.235l3.49,1.163l2.334,1.479l4.678,5.508l-1.783,3.705l-7.224-0.223l-2.612-0.904l-3.085-2.002
	l-4.627,5.801l2.64,2.562l1.462,2.346l1.824,6.992l-3.214,2.564l-6.412-3.335l-1.961-1.948l-1.91-3.143l-6.686,3.22l1.266,3.453
	l0.3,2.747l-1.39,7.093l-4.008,0.915l-4.33-5.787l-0.922-2.605l-0.357-3.66h-7.422l-0.357,3.66l-0.922,2.605l-4.33,5.787
	l-4.008-0.915l-1.39-7.093l0.3-2.747l1.266-3.453l-6.686-3.22l-1.91,3.143l-1.961,1.948l-6.412,3.335l-3.214-2.564l1.824-6.992
	l1.462-2.346l2.64-2.562l-4.627-5.801l-3.085,2.002l-2.612,0.904l-7.224,0.223l-1.783-3.705l4.678-5.508l2.334-1.479l3.49-1.163
	l-1.65-7.235L9.35,55.378L6.604,55.06L0,52.126v-4.112l6.604-2.934l2.745-0.318l3.649,0.466l1.65-7.235l-3.49-1.163l-2.334-1.478
	l-4.678-5.509l1.783-3.705l7.224,0.223l2.612,0.904l3.085,2.003l4.627-5.802l-2.64-2.562l-1.462-2.345l-1.824-6.993l3.214-2.564
	l6.412,3.335l1.961,1.948l1.91,3.143l6.686-3.22l-1.266-3.453l-0.3-2.748l1.39-7.092L41.567,0l4.33,5.787l0.922,2.605l0.357,3.661
	h7.422l0.357-3.661l0.922-2.605L60.208,0l4.008,0.915l1.39,7.092l-0.3,2.748l-1.266,3.453l6.686,3.22l1.91-3.143l1.961-1.948
	l6.412-3.335l3.214,2.564l-1.824,6.993l-1.462,2.345l-2.64,2.562l4.627,5.802l3.085-2.003l2.612-0.904l7.224-0.223l1.783,3.705
	l-4.678,5.509l-2.334,1.478l-3.49,1.163L88.776,45.228z"/>
</svg>
