<?xml version="1.0" encoding="utf-8"?>
<!-- Generator: Adobe Illustrator 16.0.0, SVG Export Plug-In . SVG Version: 6.00 Build 0)  -->
<!DOCTYPE svg PUBLIC "-//W3C//DTD SVG 1.0//EN" "http://www.w3.org/TR/2001/REC-SVG-20010904/DTD/svg10.dtd">
<svg version="1.0" id="Layer_1" xmlns="http://www.w3.org/2000/svg" xmlns:xlink="http://www.w3.org/1999/xlink" x="0px" y="0px"
	 width="165.459px" height="165.458px" viewBox="0 0 165.459 165.458" enable-background="new 0 0 165.459 165.458"
	 xml:space="preserve">
<path id="path3099" fill="none" stroke="#FFFFFF" d="M12.928,77.108l-1.754-0.141l-4.676,0.766L0,80.452v4.554l6.498,2.719
	l4.676,0.767l1.754-0.142l0.924,7.017l-1.73,0.317l-4.316,1.949l-5.574,4.309l1.178,4.4l6.982,0.943l4.713-0.471l1.658-0.59
	l2.707,6.537l-1.588,0.756l-3.666,3l-4.27,5.604l2.277,3.945l6.986-0.896l4.434-1.674l1.447-0.999l4.309,5.614l-1.34,1.14
	l-2.766,3.848l-2.672,6.518l3.221,3.221l6.518-2.673l3.848-2.764l1.141-1.341l5.613,4.309l-1,1.448l-1.674,4.432l-0.895,6.987
	l3.945,2.276l5.604-4.268l3-3.666l0.756-1.589l6.537,2.708l-0.59,1.657l-0.471,4.714l0.943,6.98l4.4,1.18l4.309-5.574l1.949-4.317
	l0.318-1.729l7.016,0.923l-0.141,1.754l0.766,4.675l2.719,6.498h4.555l2.719-6.498l0.766-4.675l-0.141-1.754l7.016-0.923
	l0.316,1.729l1.951,4.317l4.307,5.574l4.4-1.18l0.943-6.98l-0.469-4.714l-0.59-1.657l6.537-2.708l0.754,1.589l3,3.666l5.604,4.268
	l3.945-2.276l-0.895-6.987l-1.674-4.433l-1-1.447l5.615-4.309l1.139,1.341l3.848,2.764l6.518,2.673l3.223-3.221l-2.674-6.518
	l-2.764-3.848l-1.34-1.14l4.307-5.614l1.449,0.999l4.432,1.674l6.986,0.896l2.277-3.945l-4.268-5.604l-3.666-3l-1.59-0.756
	l2.709-6.537l1.656,0.59l4.715,0.471l6.98-0.943l1.18-4.4l-5.574-4.309l-4.316-1.949l-1.73-0.317l0.922-7.017l1.754,0.142
	l4.676-0.767l6.498-2.719v-4.554l-6.498-2.719l-4.676-0.766l-1.754,0.141l-0.922-7.016l1.73-0.317l4.316-1.95l5.574-4.308l-1.18-4.4
	l-6.98-0.944l-4.715,0.47l-1.656,0.59l-2.709-6.537l1.59-0.755l3.666-3l4.268-5.604l-2.277-3.945l-6.986,0.895l-4.432,1.674
	l-1.449,0.999l-4.307-5.614l1.34-1.14l2.764-3.847l2.674-6.518l-3.223-3.221l-6.518,2.673l-3.848,2.764l-1.139,1.34l-5.615-4.308
	l1-1.448l1.674-4.432l0.895-6.987l-3.945-2.277l-5.604,4.268l-3,3.666l-0.754,1.589l-6.537-2.708l0.59-1.657l0.469-4.714
	l-0.943-6.981l-4.4-1.179l-4.307,5.574l-1.951,4.317l-0.316,1.73l-7.016-0.923l0.141-1.754l-0.766-4.675L85.008,0h-4.555
	l-2.719,6.498l-0.766,4.675l0.141,1.754l-7.016,0.923l-0.318-1.73l-1.949-4.317l-4.309-5.574l-4.4,1.179l-0.943,6.981l0.471,4.714
	l0.59,1.657l-6.537,2.708l-0.756-1.589l-3-3.666l-5.604-4.268l-3.945,2.277l0.895,6.987l1.674,4.432l1,1.448l-5.613,4.308
	l-1.141-1.34l-3.848-2.764l-6.518-2.673l-3.221,3.221l2.672,6.518l2.766,3.847l1.34,1.14L25.09,42.96l-1.447-0.999l-4.434-1.674
	l-6.986-0.895l-2.277,3.945l4.27,5.604l3.666,3l1.588,0.755l-2.707,6.537l-1.658-0.59l-4.713-0.47l-6.982,0.944l-1.178,4.4
	l5.574,4.308l4.316,1.95l1.73,0.317L12.928,77.108z"/>
</svg>
